<svg width="80" height="120" viewBox="0 0 80 120" fill="none" xmlns="http://www.w3.org/2000/svg">
<rect width="80" height="120" rx="4" fill="#ECECEC"/>
<path d="M62.0229 54.2393H19.8406C19.3114 54.2393 18.8818 54.6688 18.8818 55.198V78.2065C18.8818 80.8486 21.0312 82.9999 23.6753 82.9999H58.1881C60.8322 82.9999 62.9815 80.8486 62.9815 78.2065V55.198C62.9816 54.6687 62.5521 54.2393 62.0229 54.2393ZM61.0642 78.2064C61.0642 79.7921 59.7739 81.0825 58.1882 81.0825H23.6753C22.0896 81.0825 20.7993 79.7921 20.7993 78.2064V56.1566H61.0642V78.2064Z" fill="#999999"/>
<path d="M62.9511 45.3676L61.3194 39.1764C60.9436 37.6712 59.4059 36.726 57.8816 37.0711L19.254 46.2361C18.4948 46.4087 17.8524 46.8707 17.444 47.5342C17.0356 48.1976 16.9148 48.9799 17.1065 49.7392L18.9127 56.8795C19.0201 57.3128 19.4112 57.6023 19.8407 57.6023C19.9173 57.6023 19.996 57.5947 20.0784 57.5736C20.5903 57.4451 20.9009 56.9236 20.7705 56.4098L20.6651 55.9937L62.2358 46.5487C62.4889 46.4893 62.7093 46.332 62.8436 46.1097C62.9799 45.8872 63.0163 45.6188 62.9511 45.3676ZM20.1955 54.1338L18.9645 49.2733C18.9013 49.0202 18.9434 48.7594 19.0777 48.537C19.2139 48.3165 19.4286 48.1631 19.6893 48.1017L58.3168 38.9386C58.3858 38.9214 58.4567 38.9137 58.5257 38.9137C58.9553 38.9137 59.3522 39.209 59.4615 39.6519L60.8439 44.896L20.1955 54.1338Z" fill="#999999"/>
<path d="M27.9399 54.3394C27.4644 54.1074 26.8931 54.2953 26.6515 54.7689L22.8167 62.4384C22.5808 62.912 22.7726 63.4872 23.2462 63.725C23.3861 63.794 23.5319 63.8266 23.6757 63.8266C24.0266 63.8266 24.366 63.633 24.5347 63.2956L28.3695 55.6261C28.6053 55.1523 28.4135 54.5771 27.9399 54.3394Z" fill="#999999"/>
<path d="M37.525 54.3394C37.0514 54.1074 36.4762 54.2953 36.2384 54.7689L32.4036 62.4384C32.1678 62.912 32.3595 63.4872 32.8331 63.725C32.9731 63.794 33.1188 63.8266 33.2626 63.8266C33.6135 63.8266 33.9529 63.633 34.1197 63.2956L37.9545 55.6261C38.1902 55.1523 37.9985 54.5771 37.525 54.3394Z" fill="#999999"/>
<path d="M47.1119 54.3394C46.6402 54.1074 46.065 54.2953 45.8253 54.7689L41.9905 62.4384C41.7547 62.912 41.9464 63.4872 42.42 63.725C42.56 63.794 42.7057 63.8266 42.8496 63.8266C43.2004 63.8266 43.5398 63.633 43.7066 63.2956L47.5414 55.6261C47.7772 55.1523 47.5854 54.5771 47.1119 54.3394Z" fill="#999999"/>
<path d="M56.6988 54.3394C56.2233 54.1074 55.6519 54.2953 55.4122 54.7689L51.5774 62.4384C51.3416 62.912 51.5333 63.4872 52.0069 63.725C52.1469 63.794 52.2927 63.8266 52.4365 63.8266C52.7874 63.8266 53.1267 63.633 53.2935 63.2956L57.1283 55.6261C57.3641 55.1523 57.1724 54.5771 56.6988 54.3394Z" fill="#999999"/>
<path d="M62.0229 61.9092H19.8406C19.3114 61.9092 18.8818 62.3387 18.8818 62.8679C18.8818 63.3971 19.3114 63.8266 19.8406 63.8266H62.0229C62.554 63.8266 62.9817 63.3971 62.9817 62.8679C62.9817 62.3387 62.5521 61.9092 62.0229 61.9092Z" fill="#999999"/>
<path d="M29.1116 52.5655L22.5081 45.9621C22.1342 45.5882 21.5264 45.5882 21.1525 45.9621C20.7786 46.3359 20.7786 46.9438 21.1525 47.3177L27.7559 53.923C27.9439 54.109 28.1892 54.203 28.4347 54.203C28.6801 54.203 28.9255 54.1091 29.1116 53.9211C29.4854 53.5471 29.4854 52.9394 29.1116 52.5655Z" fill="#999999"/>
<path d="M38.4912 50.4356L31.8821 43.8322C31.5082 43.4583 30.9004 43.4583 30.5265 43.8322C30.1526 44.2061 30.1526 44.8139 30.5265 45.1878L37.1338 51.7912C37.3218 51.9772 37.5671 52.0712 37.8126 52.0712C38.058 52.0712 38.3034 51.9773 38.4913 51.7912C38.8652 51.4174 38.8652 50.8095 38.4912 50.4356Z" fill="#999999"/>
<path d="M47.8636 48.3047L41.2659 41.6994C40.892 41.3255 40.2842 41.3255 39.9103 41.6994C39.5364 42.0733 39.5364 42.6811 39.9103 43.055L46.508 49.6603C46.6959 49.8463 46.9413 49.9403 47.1867 49.9403C47.4322 49.9403 47.6776 49.8482 47.8636 49.6603C48.2375 49.2864 48.2375 48.6786 47.8636 48.3047Z" fill="#999999"/>
<path d="M57.2318 46.1768L50.6321 39.5714C50.2582 39.1975 49.6504 39.1975 49.2765 39.5714C48.9026 39.9453 48.9026 40.5532 49.2765 40.927L55.8761 47.5324C56.064 47.7183 56.3094 47.8124 56.5548 47.8124C56.8003 47.8124 57.0457 47.7184 57.2317 47.5324C57.6057 47.1585 57.6057 46.5507 57.2318 46.1768Z" fill="#999999"/>
</svg>
